<svg xmlns="http://www.w3.org/2000/svg" xmlns:xlink="http://www.w3.org/1999/xlink" width="320" zoomAndPan="magnify" viewBox="0 0 240 98.999996" height="132" preserveAspectRatio="xMidYMid meet" version="1.0"><defs><clipPath id="88cfbecdba"><path d="M 1.5625 10 L 72 10 L 72 89 L 1.5625 89 Z M 1.5625 10 " clip-rule="nonzero"/></clipPath><clipPath id="71402607b0"><path d="M 226 38 L 238.5625 38 L 238.5625 63 L 226 63 Z M 226 38 " clip-rule="nonzero"/></clipPath></defs><rect x="-24" width="288" fill="#ffffff" y="-9.9" height="118.799995" fill-opacity="1"/><rect x="-24" width="288" fill="#ffffff" y="-9.9" height="118.799995" fill-opacity="1"/><g clip-path="url(#88cfbecdba)"><path fill="#209362" d="M 35.523438 10.847656 L 37.25 10.847656 L 38.574219 11.253906 L 46.507812 15.828125 L 48.640625 17.050781 L 51.082031 18.472656 L 53.625 19.898438 L 55.355469 20.914062 L 57.996094 22.441406 L 60.4375 23.863281 L 63.285156 25.492188 L 65.929688 27.015625 L 68.371094 28.441406 L 69.488281 29.253906 L 70.203125 30.066406 L 70.8125 31.390625 L 71.015625 32.507812 L 71.015625 67.1875 L 70.8125 68.40625 L 70.40625 69.425781 L 69.589844 70.542969 L 68.574219 71.253906 L 66.234375 72.578125 L 61.863281 75.121094 L 59.015625 76.746094 L 56.574219 78.171875 L 49.457031 82.238281 L 47.015625 83.660156 L 39.082031 88.238281 L 38.066406 88.746094 L 37.25 88.949219 L 35.625 88.949219 L 34.300781 88.542969 L 32.269531 87.425781 L 29.828125 86 L 26.980469 84.375 L 25.148438 83.355469 L 22.199219 81.628906 L 20.066406 80.40625 L 17.625 78.984375 L 14.777344 77.355469 L 12.335938 75.933594 L 9.488281 74.304688 L 6.84375 72.78125 L 4.097656 71.152344 L 3.082031 70.339844 L 2.472656 69.527344 L 1.960938 68.304688 L 1.859375 67.898438 L 1.757812 66.476562 L 1.757812 32.914062 L 1.859375 31.796875 L 2.371094 30.472656 L 2.980469 29.558594 L 3.894531 28.746094 L 9.183594 25.695312 L 11.320312 24.472656 L 13.046875 23.457031 L 15.691406 21.933594 L 19.964844 19.492188 L 22.402344 18.066406 L 26.675781 15.625 L 29.320312 14.101562 L 34.300781 11.253906 L 35.015625 10.949219 Z M 35.523438 10.847656 " fill-opacity="1" fill-rule="nonzero"/></g><path fill="#fcfdfd" d="M 66.03125 35.253906 L 66.132812 35.253906 L 66.132812 44.203125 L 64.8125 45.015625 L 61.964844 46.644531 L 60.84375 47.253906 L 60.742188 47.152344 L 60.640625 44.609375 L 52.710938 49.1875 L 50.371094 50.507812 L 48.640625 51.527344 L 45.792969 53.152344 L 43.761719 54.375 L 43.660156 73.898438 L 44.878906 73.289062 L 47.117188 71.964844 L 49.761719 70.441406 L 55.457031 67.1875 L 58.097656 65.660156 L 60.234375 64.441406 L 60.742188 64.238281 L 60.640625 56.710938 L 58.914062 57.628906 L 57.183594 58.644531 L 54.742188 60.066406 L 52.40625 61.390625 L 52.199219 61.390625 L 52.199219 55.289062 L 53.015625 54.78125 L 55.660156 53.253906 L 58.097656 51.832031 L 60.234375 50.609375 L 62.167969 49.492188 L 64.304688 48.269531 L 65.828125 47.355469 L 66.132812 47.355469 L 66.132812 67.289062 L 64.8125 68.101562 L 62.167969 69.628906 L 60.03125 70.847656 L 57.386719 72.375 L 55.25 73.59375 L 52.8125 75.019531 L 50.980469 76.035156 L 49.25 77.050781 L 43.964844 80.101562 L 41.523438 81.527344 L 38.777344 83.050781 L 38.269531 83.253906 L 38.269531 51.21875 L 40.507812 49.898438 L 51.082031 43.796875 L 53.21875 42.578125 L 55.558594 41.253906 L 58.507812 39.527344 L 60.84375 38.203125 L 63.285156 36.78125 L 65.421875 35.558594 Z M 66.03125 35.253906 " fill-opacity="1" fill-rule="nonzero"/><path fill="#fcfdfd" d="M 6.742188 35.253906 L 7.960938 35.863281 L 10.402344 37.289062 L 13.046875 38.8125 L 15.894531 40.441406 L 18.335938 41.863281 L 26.269531 46.441406 L 28.8125 47.863281 L 31.25 49.289062 L 33.894531 50.8125 L 34.609375 51.320312 L 34.503906 60.273438 L 33.082031 59.457031 L 30.539062 58.035156 L 29.21875 57.21875 L 29.117188 56.609375 L 29.117188 54.679688 L 29.21875 54.375 L 28.8125 54.167969 L 26.777344 53.050781 L 24.335938 51.628906 L 22.503906 50.609375 L 20.777344 49.59375 L 12.84375 45.015625 L 12.03125 44.609375 L 12.132812 64.136719 L 13.148438 64.746094 L 15.082031 65.863281 L 17.523438 67.289062 L 19.863281 68.609375 L 22.605469 70.238281 L 24.234375 71.152344 L 26.574219 72.476562 L 29.21875 74 L 29.117188 73.796875 L 29.015625 66.375 L 26.167969 64.746094 L 23.828125 63.425781 L 21.386719 62 L 20.574219 61.492188 L 20.574219 55.390625 L 21.183594 55.59375 L 23.015625 56.609375 L 25.453125 58.035156 L 28.199219 59.558594 L 33.082031 62.40625 L 34.503906 63.222656 L 34.503906 83.253906 L 33.996094 83.050781 L 31.453125 81.628906 L 29.015625 80.203125 L 26.371094 78.679688 L 23.828125 77.253906 L 22.097656 76.238281 L 19.25 74.609375 L 17.320312 73.492188 L 12.4375 70.644531 L 9.792969 69.121094 L 6.945312 67.492188 L 6.640625 67.289062 L 6.640625 35.355469 Z M 6.742188 35.253906 " fill-opacity="1" fill-rule="nonzero"/><path fill="#fcfdfd" d="M 36.234375 15.421875 L 36.742188 15.523438 L 39.589844 17.152344 L 42.03125 18.574219 L 44.167969 19.796875 L 44.167969 20 L 42.335938 21.015625 L 39.894531 22.441406 L 38.980469 22.949219 L 38.472656 22.847656 L 36.539062 21.726562 L 36.03125 21.832031 L 34.503906 22.746094 L 32.878906 23.660156 L 30.4375 25.085938 L 27.792969 26.609375 L 25.65625 27.832031 L 23.320312 29.152344 L 20.878906 30.574219 L 19.453125 31.390625 L 20.371094 32 L 23.21875 33.628906 L 25.148438 34.746094 L 27.894531 36.269531 L 32.066406 38.710938 L 36.335938 41.152344 L 36.84375 40.949219 L 38.472656 40.035156 L 42.84375 37.492188 L 45.691406 35.863281 L 48.132812 34.441406 L 52.40625 32 L 53.320312 31.492188 L 52.8125 31.085938 L 50.472656 29.761719 L 48.03125 28.339844 L 47.015625 27.730469 L 46.507812 27.832031 L 44.472656 29.050781 L 42.335938 30.269531 L 39.894531 31.695312 L 38.472656 32.507812 L 37.964844 32.40625 L 35.320312 30.882812 L 33.082031 29.558594 L 33.183594 29.253906 L 38.472656 26.203125 L 41.320312 24.574219 L 43.761719 23.152344 L 45.894531 21.933594 L 46.710938 21.421875 L 47.117188 21.523438 L 49.457031 22.847656 L 52.097656 24.371094 L 54.4375 25.695312 L 56.167969 26.710938 L 58.8125 28.238281 L 60.945312 29.457031 L 63.386719 30.882812 L 64.203125 31.390625 L 63.894531 31.695312 L 61.558594 33.015625 L 59.117188 34.441406 L 56.980469 35.660156 L 54.539062 37.085938 L 51.996094 38.507812 L 49.558594 39.933594 L 44.269531 42.984375 L 41.421875 44.609375 L 38.980469 46.035156 L 36.742188 47.355469 L 36.132812 47.355469 L 33.285156 45.730469 L 31.351562 44.609375 L 29.21875 43.390625 L 27.285156 42.269531 L 24.742188 40.847656 L 22.300781 39.421875 L 19.65625 37.898438 L 12.4375 33.730469 L 9.996094 32.304688 L 8.574219 31.492188 L 8.878906 31.1875 L 11.726562 29.558594 L 14.167969 28.136719 L 17.015625 26.507812 L 19.964844 24.78125 L 22.300781 23.457031 L 24.742188 22.035156 L 27.082031 20.710938 L 29.929688 19.085938 L 31.660156 18.066406 L 34.503906 16.441406 Z M 36.234375 15.421875 " fill-opacity="1" fill-rule="nonzero"/><path fill="#f0fbfb" d="M 56.777344 72.375 L 57.082031 72.578125 L 54.539062 74 L 52.609375 75.121094 L 50.980469 76.035156 L 49.25 77.050781 L 48.03125 77.761719 L 47.929688 77.457031 L 48.4375 76.847656 L 48.945312 76.339844 L 49.457031 75.730469 L 50.675781 74.914062 L 52.199219 74.304688 L 53.320312 74 L 54.234375 73.59375 L 55.25 72.984375 L 55.863281 72.679688 Z M 56.777344 72.375 " fill-opacity="1" fill-rule="nonzero"/><path fill="#f0fbfb" d="M 44.777344 27.832031 L 45.589844 27.832031 L 45.996094 28.136719 L 44.472656 29.050781 L 42.335938 30.269531 L 39.894531 31.695312 L 38.472656 32.507812 L 38.167969 32.40625 L 38.371094 32.304688 L 38.167969 31.796875 L 38.269531 31.390625 L 39.285156 30.984375 L 40.402344 30.574219 L 41.320312 29.964844 L 42.03125 29.457031 L 43.046875 28.949219 L 43.964844 28.136719 Z M 44.777344 27.832031 " fill-opacity="1" fill-rule="nonzero"/><path fill="#e6eded" d="M 66.03125 48.269531 L 66.132812 48.269531 L 66.132812 67.289062 L 64.8125 68.101562 L 62.167969 69.628906 L 60.03125 70.847656 L 59.523438 71.050781 L 59.523438 70.847656 L 60.03125 70.542969 L 60.742188 69.730469 L 61.761719 69.121094 L 63.996094 67.796875 L 64.914062 67.59375 L 65.320312 67.390625 L 65.726562 66.273438 L 65.828125 65.558594 L 65.929688 65.457031 L 65.929688 62.507812 Z M 66.03125 48.269531 " fill-opacity="1" fill-rule="nonzero"/><path fill="#f0fbfb" d="M 56.675781 46.238281 L 57.285156 46.441406 L 56.980469 46.746094 L 54.640625 48.066406 L 52.507812 49.289062 L 47.929688 51.933594 L 47.929688 51.628906 L 49.046875 50.710938 L 50.066406 50.203125 L 50.777344 50 L 51.285156 49.289062 L 52.40625 48.679688 L 54.132812 47.457031 L 55.660156 46.746094 Z M 56.675781 46.238281 " fill-opacity="1" fill-rule="nonzero"/><path fill="#eff9f9" d="M 31.761719 24.066406 L 32.066406 24.167969 L 29.523438 25.59375 L 27.792969 26.609375 L 25.65625 27.832031 L 23.320312 29.152344 L 23.21875 28.949219 L 23.929688 28.136719 L 24.742188 27.523438 L 26.980469 26.40625 L 28.097656 25.796875 L 28.8125 25.1875 L 29.726562 24.882812 L 30.132812 24.472656 L 31.148438 24.269531 Z M 31.761719 24.066406 " fill-opacity="1" fill-rule="nonzero"/><path fill="#f2fdfd" d="M 34.300781 63.222656 L 34.503906 63.222656 L 34.503906 83.253906 L 33.996094 83.050781 L 33.082031 82.542969 L 33.386719 82.441406 L 33.488281 81.730469 L 33.792969 81.121094 L 34.097656 79.085938 L 34.300781 78.375 Z M 34.300781 63.222656 " fill-opacity="1" fill-rule="nonzero"/><path fill="#f0fbfb" d="M 45.183594 78.476562 L 45.996094 78.476562 L 46.40625 78.679688 L 43.660156 80.304688 L 41.828125 81.324219 L 41.726562 81.121094 L 41.929688 81.121094 L 42.03125 80.507812 L 42.742188 79.898438 L 44.167969 78.984375 Z M 45.183594 78.476562 " fill-opacity="1" fill-rule="nonzero"/><path fill="#f0fbfb" d="M 34.300781 51.117188 L 34.609375 51.320312 L 34.503906 60.273438 L 33.386719 59.660156 L 33.792969 59.558594 L 33.996094 59.050781 L 34.300781 58.847656 L 34.300781 56.203125 L 34.097656 54.269531 L 34.097656 51.628906 Z M 34.300781 51.117188 " fill-opacity="1" fill-rule="nonzero"/><path fill="#effafa" d="M 41.015625 44.507812 L 41.320312 44.710938 L 38.777344 46.136719 L 36.742188 47.355469 L 36.132812 47.355469 L 36.742188 46.644531 L 37.761719 45.832031 L 38.675781 45.527344 L 39.996094 44.710938 Z M 41.015625 44.507812 " fill-opacity="1" fill-rule="nonzero"/><path fill="#effafa" d="M 31.351562 12.675781 L 31.660156 12.878906 L 29.117188 14.304688 L 26.472656 15.828125 L 26.167969 15.933594 L 26.269531 15.625 L 26.675781 15.421875 L 27.082031 14.8125 L 28.199219 14.101562 L 28.710938 13.695312 L 30.234375 12.984375 Z M 31.351562 12.675781 " fill-opacity="1" fill-rule="nonzero"/><path fill="#e8f0f0" d="M 66.03125 35.253906 L 66.132812 35.253906 L 66.132812 44.203125 L 65.015625 44.914062 L 65.015625 44.609375 L 65.320312 44.304688 L 65.828125 44.203125 L 65.726562 43.695312 L 65.726562 41.558594 L 65.828125 40.542969 L 65.929688 35.558594 Z M 66.03125 35.253906 " fill-opacity="1" fill-rule="nonzero"/><path fill="#effafa" d="M 62.980469 30.78125 L 63.589844 30.984375 L 64.203125 31.390625 L 63.894531 31.695312 L 61.558594 33.015625 L 60.742188 33.421875 L 60.84375 33.117188 L 61.046875 33.117188 L 61.253906 32.609375 L 62.878906 30.984375 Z M 62.980469 30.78125 " fill-opacity="1" fill-rule="nonzero"/><path fill="#f0fbfb" d="M 35.523438 21.320312 L 36.132812 21.320312 L 36.742188 21.625 L 36.539062 21.726562 L 36.03125 21.832031 L 34.503906 22.746094 L 33.589844 23.253906 L 33.386719 23.253906 L 33.386719 22.746094 L 34.300781 21.933594 Z M 35.523438 21.320312 " fill-opacity="1" fill-rule="nonzero"/><path fill="#effafa" d="M 56.167969 35.457031 L 56.878906 35.457031 L 56.878906 35.761719 L 54.335938 37.1875 L 52.914062 38 L 52.914062 37.695312 L 53.320312 37.289062 L 53.828125 36.984375 L 54.4375 36.472656 L 55.964844 35.558594 Z M 56.167969 35.457031 " fill-opacity="1" fill-rule="nonzero"/><path fill="#effafa" d="M 45.183594 41.660156 L 45.996094 41.660156 L 46.199219 41.863281 L 43.558594 43.390625 L 42.539062 43.898438 L 42.742188 43.390625 L 43.558594 42.679688 Z M 45.183594 41.660156 " fill-opacity="1" fill-rule="nonzero"/><path fill="#eef8f8" d="M 49.457031 39.730469 L 49.761719 39.832031 L 47.421875 41.152344 L 46.8125 41.457031 L 47.015625 41.050781 L 47.117188 40.644531 L 47.828125 40.136719 Z M 49.457031 39.730469 " fill-opacity="1" fill-rule="nonzero"/><path fill="#edf7f7" d="M 50.574219 50.101562 L 50.777344 50.101562 L 50.777344 50.304688 L 48.234375 51.730469 L 47.828125 51.933594 L 48.03125 51.527344 L 49.046875 50.710938 L 50.066406 50.203125 Z M 50.574219 50.101562 " fill-opacity="1" fill-rule="nonzero"/><path fill="#eff9f9" d="M 10.910156 24.371094 L 11.421875 24.371094 L 11.117188 24.675781 L 9.488281 25.59375 L 9.183594 25.695312 L 9.285156 25.1875 L 9.792969 24.675781 Z M 10.910156 24.371094 " fill-opacity="1" fill-rule="nonzero"/><path fill="#eef8f8" d="M 22.914062 29.152344 L 23.21875 29.253906 L 21.386719 30.269531 L 20.167969 30.984375 L 19.964844 30.78125 L 20.777344 30.066406 L 21.691406 29.761719 L 21.894531 29.558594 Z M 22.914062 29.152344 " fill-opacity="1" fill-rule="nonzero"/><path fill="#edf7f7" d="M 46.609375 52.441406 L 46.914062 52.542969 L 45.082031 53.558594 L 44.675781 53.761719 L 44.777344 53.253906 L 45.082031 52.949219 L 46.40625 52.542969 Z M 46.609375 52.441406 " fill-opacity="1" fill-rule="nonzero"/><path fill="#eef8f8" d="M 58.710938 45.21875 L 59.21875 45.320312 L 58.914062 45.628906 L 57.488281 46.441406 L 57.488281 46.136719 L 57.691406 46.136719 L 57.894531 45.730469 L 58.304688 45.320312 Z M 58.710938 45.21875 " fill-opacity="1" fill-rule="nonzero"/><path fill="#ecf5f5" d="M 56.777344 58.644531 L 56.980469 58.746094 L 55.457031 59.660156 L 54.4375 60.167969 L 54.539062 59.863281 L 55.457031 59.253906 Z M 56.777344 58.644531 " fill-opacity="1" fill-rule="nonzero"/><path fill="#eef8f8" d="M 63.488281 45.117188 L 64.507812 45.117188 L 64.097656 45.421875 L 62.980469 46.035156 L 63.082031 45.527344 Z M 63.488281 45.117188 " fill-opacity="1" fill-rule="nonzero"/><path fill="#edf6f6" d="M 25.25 16.136719 L 25.554688 16.238281 L 25.046875 16.644531 L 23.828125 17.253906 L 23.929688 16.949219 L 24.640625 16.339844 Z M 25.25 16.136719 " fill-opacity="1" fill-rule="nonzero"/><path fill="#ebf4f4" d="M 40.402344 21.832031 L 40.609375 21.832031 L 40.609375 22.035156 L 39.183594 22.847656 L 39.082031 22.644531 L 39.488281 22.136719 L 40.300781 21.933594 Z M 40.402344 21.832031 " fill-opacity="1" fill-rule="nonzero"/><path fill="#eaf2f2" d="M 22.914062 29.152344 L 23.21875 29.253906 L 21.589844 30.167969 L 21.589844 29.863281 L 21.894531 29.558594 Z M 22.914062 29.152344 " fill-opacity="1" fill-rule="nonzero"/><path fill="#209362" d="M 93.484375 38.941406 L 102.023438 38.941406 L 103.414062 39.371094 L 104.265625 40.011719 L 104.90625 40.972656 L 105.226562 42.253906 L 105.226562 50.792969 L 104.90625 52.289062 L 104.160156 53.355469 L 103.414062 53.890625 L 103.199219 53.890625 L 103.625 55.707031 L 105.121094 61.363281 L 105.121094 62.003906 L 105.015625 62.113281 L 101.597656 62.113281 L 101.277344 61.898438 L 100.101562 57.734375 L 99.355469 54.746094 L 99.355469 54.425781 L 97.328125 54.425781 L 97.21875 61.792969 L 97.113281 62.113281 L 93.589844 62.113281 L 93.375 62.003906 L 93.269531 57.949219 L 93.269531 42.359375 L 93.375 39.15625 Z M 93.484375 38.941406 " fill-opacity="1" fill-rule="nonzero"/><path fill="#209362" d="M 137.367188 38.941406 L 140.890625 38.941406 L 141.316406 39.796875 L 143.347656 45.457031 L 145.160156 50.582031 L 145.589844 51.648438 L 145.695312 39.261719 L 145.910156 38.941406 L 149.433594 38.941406 L 149.644531 39.050781 L 149.644531 62.003906 L 149.539062 62.113281 L 146.121094 62.113281 L 145.800781 61.792969 L 145.054688 59.871094 L 143.347656 55.066406 L 141.851562 50.902344 L 141.316406 49.511719 L 141.210938 52.824219 L 141.210938 61.257812 L 140.996094 62.003906 L 140.890625 62.113281 L 137.472656 62.113281 L 137.261719 61.898438 L 137.261719 39.261719 Z M 137.367188 38.941406 " fill-opacity="1" fill-rule="nonzero"/><path fill="#144273" d="M 165.554688 38.835938 L 168.222656 38.835938 L 169.183594 38.941406 L 169.503906 39.476562 L 174.097656 60.722656 L 174.203125 61.898438 L 173.992188 62.113281 L 170.894531 62.21875 L 170.359375 62.003906 L 170.039062 60.9375 L 169.398438 57.628906 L 164.273438 57.519531 L 164.167969 58.589844 L 163.632812 61.363281 L 163.3125 62.113281 L 162.566406 62.21875 L 161.390625 62.21875 L 159.574219 62.113281 L 159.46875 61.792969 L 161.070312 54.210938 L 163.847656 41.398438 L 164.378906 39.15625 L 164.488281 38.941406 Z M 165.554688 38.835938 " fill-opacity="1" fill-rule="nonzero"/><path fill="#209362" d="M 81.417969 38.941406 L 87.078125 38.941406 L 88.464844 39.371094 L 89.105469 39.796875 L 89.851562 40.652344 L 90.28125 41.933594 L 90.386719 43.214844 L 90.386719 45.242188 L 90.28125 46.417969 L 90.066406 46.523438 L 86.757812 46.523438 L 86.542969 46.308594 L 86.4375 43.425781 L 85.902344 42.894531 L 85.261719 42.785156 L 83.234375 42.785156 L 82.59375 43 L 82.273438 43.320312 L 82.164062 43.855469 L 82.164062 57.09375 L 82.378906 57.839844 L 82.699219 58.160156 L 85.902344 58.160156 L 86.328125 57.839844 L 86.4375 57.519531 L 86.542969 53.25 L 84.726562 53.25 L 84.621094 53.144531 L 84.515625 51.007812 L 84.621094 49.511719 L 84.835938 49.40625 L 89.960938 49.40625 L 90.28125 49.511719 L 90.386719 54.316406 L 90.386719 58.160156 L 90.171875 59.550781 L 89.746094 60.511719 L 89 61.363281 L 87.929688 61.898438 L 87.183594 62.113281 L 81.417969 62.113281 L 80.03125 61.683594 L 79.070312 60.9375 L 78.429688 59.871094 L 78.214844 58.910156 L 78.109375 52.289062 L 78.109375 46.097656 L 78.214844 42.039062 L 78.535156 40.972656 L 79.175781 40.011719 L 80.03125 39.371094 Z M 81.417969 38.941406 " fill-opacity="1" fill-rule="nonzero"/><g clip-path="url(#71402607b0)"><path fill="#144273" d="M 230.902344 38.835938 L 233.785156 38.835938 L 235.386719 38.941406 L 236.773438 39.476562 L 237.414062 40.011719 L 238.054688 41.078125 L 238.269531 41.824219 L 238.375 42.785156 L 238.375 46.203125 L 238.160156 46.628906 L 234.53125 46.628906 L 234.316406 46.097656 L 234.210938 43.425781 L 233.675781 42.894531 L 231.328125 42.894531 L 230.792969 43.425781 L 230.6875 47.910156 L 231.863281 48.230469 L 237.628906 50.152344 L 238.269531 50.6875 L 238.375 50.902344 L 238.375 58.375 L 238.160156 59.65625 L 237.628906 60.722656 L 237.09375 61.257812 L 236.347656 61.792969 L 235.277344 62.113281 L 229.832031 62.113281 L 228.765625 61.792969 L 227.910156 61.257812 L 227.164062 60.402344 L 226.738281 59.121094 L 226.628906 58.160156 L 226.628906 55.492188 L 226.738281 54.53125 L 226.949219 54.425781 L 230.472656 54.425781 L 230.6875 54.746094 L 230.792969 57.519531 L 231.113281 58.054688 L 231.328125 58.160156 L 233.675781 58.160156 L 234.105469 57.949219 L 234.210938 57.628906 L 234.316406 53.25 L 233.355469 53.035156 L 227.804688 51.222656 L 226.949219 50.792969 L 226.738281 50.582031 L 226.628906 49.832031 L 226.628906 43 L 226.84375 41.503906 L 227.484375 40.222656 L 228.445312 39.371094 L 229.726562 38.941406 Z M 230.902344 38.835938 " fill-opacity="1" fill-rule="nonzero"/></g><path fill="#144273" d="M 214.03125 38.835938 L 223.320312 38.835938 L 223.746094 39.15625 L 223.746094 42.464844 L 223.425781 42.785156 L 216.058594 42.785156 L 216.058594 47.589844 L 215.953125 48.550781 L 221.613281 48.550781 L 222.039062 48.871094 L 222.039062 52.074219 L 221.613281 52.503906 L 215.953125 52.503906 L 216.058594 53.890625 L 216.058594 58.269531 L 223.425781 58.269531 L 223.746094 58.589844 L 223.746094 61.898438 L 223.214844 62.21875 L 212.75 62.21875 L 212.214844 62.113281 L 212.109375 61.898438 L 212.109375 39.15625 L 212.214844 38.941406 Z M 214.03125 38.835938 " fill-opacity="1" fill-rule="nonzero"/><path fill="#209362" d="M 108.109375 38.941406 L 119.535156 38.941406 L 119.640625 39.15625 L 119.640625 42.464844 L 119.320312 42.785156 L 111.953125 42.785156 L 111.953125 48.550781 L 117.507812 48.550781 L 117.933594 48.871094 L 117.933594 52.183594 L 117.71875 52.394531 L 111.953125 52.394531 L 111.953125 58.269531 L 119.320312 58.269531 L 119.640625 58.589844 L 119.640625 61.898438 L 119.535156 62.113281 L 108.21875 62.113281 L 108.109375 61.898438 Z M 108.109375 38.941406 " fill-opacity="1" fill-rule="nonzero"/><path fill="#209362" d="M 122.84375 38.941406 L 134.058594 38.941406 L 134.269531 39.261719 L 134.269531 42.144531 L 134.164062 42.679688 L 133.949219 42.785156 L 126.476562 42.785156 L 126.476562 48.550781 L 132.136719 48.550781 L 132.457031 48.765625 L 132.5625 51.007812 L 132.457031 52.289062 L 132.347656 52.394531 L 126.582031 52.503906 L 126.476562 58.269531 L 133.308594 58.269531 L 134.058594 58.375 L 134.269531 58.695312 L 134.269531 61.792969 L 134.058594 62.113281 L 122.84375 62.113281 L 122.738281 62.003906 L 122.632812 59.230469 L 122.632812 41.183594 L 122.738281 39.050781 Z M 122.84375 38.941406 " fill-opacity="1" fill-rule="nonzero"/><path fill="#144273" d="M 192.570312 38.835938 L 194.917969 38.941406 L 195.132812 39.261719 L 195.132812 58.269531 L 202.070312 58.269531 L 202.390625 58.375 L 202.5 58.589844 L 202.5 61.792969 L 202.285156 62.113281 L 201.75 62.21875 L 197.585938 62.21875 L 191.289062 62.113281 L 191.074219 61.683594 L 191.074219 39.476562 L 191.289062 38.941406 Z M 192.570312 38.835938 " fill-opacity="1" fill-rule="nonzero"/><path fill="#144273" d="M 178.261719 38.835938 L 179.648438 38.835938 L 180.824219 38.941406 L 180.929688 39.261719 L 180.929688 58.269531 L 187.976562 58.269531 L 188.296875 58.589844 L 188.296875 61.898438 L 188.085938 62.113281 L 187.445312 62.21875 L 183.386719 62.21875 L 177.195312 62.113281 L 176.980469 62.003906 L 176.875 60.402344 L 176.875 41.292969 L 176.980469 39.050781 L 177.085938 38.941406 Z M 178.261719 38.835938 " fill-opacity="1" fill-rule="nonzero"/><path fill="#144273" d="M 205.914062 38.835938 L 208.476562 38.835938 L 209.226562 39.050781 L 209.332031 39.371094 L 209.332031 61.578125 L 209.117188 62.113281 L 207.515625 62.21875 L 205.488281 62.113281 L 205.273438 61.683594 L 205.273438 39.582031 L 205.488281 38.941406 Z M 205.914062 38.835938 " fill-opacity="1" fill-rule="nonzero"/><path fill="#fafcfc" d="M 97.328125 42.679688 L 100.101562 42.679688 L 101.0625 43 L 101.277344 43.320312 L 101.382812 43.855469 L 101.382812 49.511719 L 101.0625 50.261719 L 100.742188 50.472656 L 100.101562 50.582031 L 97.328125 50.582031 L 97.21875 50.472656 L 97.21875 42.785156 Z M 97.328125 42.679688 " fill-opacity="1" fill-rule="nonzero"/><path fill="#fafcfc" d="M 166.835938 44.28125 L 167.050781 44.707031 L 168.011719 50.046875 L 168.652344 53.570312 L 168.652344 54.105469 L 165.019531 54.105469 L 165.449219 51.542969 L 166.410156 46.417969 L 166.730469 44.496094 Z M 166.835938 44.28125 " fill-opacity="1" fill-rule="nonzero"/><path fill="#e4eaea" d="M 101.277344 43.855469 L 101.382812 43.855469 L 101.382812 49.511719 L 101.171875 50.152344 L 101.0625 50.152344 L 101.0625 48.019531 Z M 101.277344 43.855469 " fill-opacity="1" fill-rule="nonzero"/></svg>