<?xml version="1.0" encoding="UTF-8" standalone="no"?>
<!-- Created with Inkscape (http://www.inkscape.org/) -->

<svg
   version="1.1"
   id="svg2"
   xml:space="preserve"
   width="186.66667"
   height="40"
   viewBox="0 0 186.66667 40"
   sodipodi:docname="4a622a8d14cef84efa3693e0970bab32.ai"
   xmlns:inkscape="http://www.inkscape.org/namespaces/inkscape"
   xmlns:sodipodi="http://sodipodi.sourceforge.net/DTD/sodipodi-0.dtd"
   xmlns="http://www.w3.org/2000/svg"
   xmlns:svg="http://www.w3.org/2000/svg"><defs
     id="defs6"><clipPath
       clipPathUnits="userSpaceOnUse"
       id="clipPath16"><path
         d="M 0,30 H 140 V 0 H 0 Z"
         id="path14" /></clipPath></defs><sodipodi:namedview
     id="namedview4"
     pagecolor="#ffffff"
     bordercolor="#666666"
     borderopacity="1.0"
     inkscape:pageshadow="2"
     inkscape:pageopacity="0.0"
     inkscape:pagecheckerboard="0" /><g
     id="g8"
     inkscape:groupmode="layer"
     inkscape:label="4a622a8d14cef84efa3693e0970bab32"
     transform="matrix(1.3333333,0,0,-1.3333333,0,40)"><g
       id="g10"><g
         id="g12"
         clip-path="url(#clipPath16)"><g
           id="g18"
           transform="translate(18.8398,22.9121)"><path
             d="m 0,0 c -2.587,-1.494 -5.175,-2.988 -7.763,-4.481 -1.585,-0.915 -2.561,-2.607 -2.561,-4.437 v -8.085 h 3.272 v 7.674 c 0,0.915 0.489,1.761 1.281,2.218 L 0,-3.779 7.04,-7.843 v -8.52 c 0,-1.257 -1.019,-2.277 -2.277,-2.277 H -14.873 V 3.272 H 4.763 c 1.258,0 2.277,-1.019 2.277,-2.276 v -3.17 l 3.272,-1.889 v 6.055 c 0,2.515 -2.039,4.553 -4.553,4.553 H -18.145 V -21.912 H 5.759 c 2.514,0 4.553,2.038 4.553,4.554 v 7.926 3.105 0.374 z"
             style="fill:#ffffff;fill-opacity:1;fill-rule:nonzero;stroke:none"
             id="path20" /></g><g
           id="g22"
           transform="translate(42.5098,10.3281)"><path
             d="m 0,0 c -0.196,-0.422 -0.455,-0.749 -0.776,-0.981 -0.322,-0.232 -0.682,-0.393 -1.08,-0.482 -0.399,-0.09 -0.807,-0.134 -1.223,-0.134 h -0.946 v 6.426 h 0.946 c 0.416,0 0.824,-0.045 1.223,-0.135 0.398,-0.089 0.758,-0.249 1.08,-0.482 C -0.455,3.98 -0.196,3.653 0,3.23 0.196,2.809 0.294,2.27 0.294,1.616 0.294,0.961 0.196,0.423 0,0 m 0.714,7.104 c -1.018,0.505 -2.235,0.758 -3.65,0.758 H -4.025 -5.256 -7.612 V -4.631 h 2.356 1.231 1.089 c 1.415,0 2.632,0.252 3.65,0.758 1.017,0.506 1.803,1.226 2.356,2.16 C 3.623,-0.779 3.9,0.331 3.9,1.616 3.9,2.912 3.623,4.025 3.07,4.953 2.517,5.881 1.731,6.598 0.714,7.104"
             style="fill:#ffffff;fill-opacity:1;fill-rule:nonzero;stroke:none"
             id="path24" /></g><g
           id="g26"
           transform="translate(56.4434,9.9785)"><path
             d="m 0,0 h -2.313 l 1.15,2.626 z m -7.535,-4.281 h 3.679 l 0.957,1.889 h 3.457 l 0.988,-1.889 h 3.68 L -1.163,8.212 Z"
             style="fill:#ffffff;fill-opacity:1;fill-rule:nonzero;stroke:none"
             id="path28" /></g><g
           id="g30"
           transform="translate(67.6309,18.1904)"><path
             d="m 0,0 h -3.463 v -12.493 h 8.514 v 2.944 H 0 Z"
             style="fill:#ffffff;fill-opacity:1;fill-rule:nonzero;stroke:none"
             id="path32" /></g><g
           id="g34"
           transform="translate(82.7158,9.9785)"><path
             d="m 0,0 h -2.313 l 1.15,2.626 z m -7.535,-4.281 h 3.679 l 0.957,1.889 h 3.457 l 0.988,-1.889 h 3.68 L -1.163,8.212 Z"
             style="fill:#ffffff;fill-opacity:1;fill-rule:nonzero;stroke:none"
             id="path36" /></g><g
           id="g38"
           transform="translate(90.4404,15.103)"><path
             d="M 0,0 H 3.498 V -9.406 H 6.961 V 0 h 3.498 V 3.087 H 0 Z"
             style="fill:#ffffff;fill-opacity:1;fill-rule:nonzero;stroke:none"
             id="path40" /></g><g
           id="g42"
           transform="translate(109.9131,8.8477)"><path
             d="m 0,0 c -0.167,-0.197 -0.39,-0.331 -0.67,-0.402 -0.279,-0.072 -0.592,-0.107 -0.936,-0.107 h -1.447 v 2.571 h 1.447 c 0.261,0 0.502,-0.019 0.722,-0.054 0.22,-0.036 0.416,-0.102 0.589,-0.196 C -0.122,1.716 0.012,1.591 0.106,1.437 0.202,1.281 0.25,1.085 0.25,0.848 0.25,0.479 0.166,0.196 0,0 m -1.928,6.702 c 0.488,0 0.854,-0.09 1.098,-0.268 0.243,-0.179 0.366,-0.458 0.366,-0.839 0,-0.25 -0.057,-0.464 -0.17,-0.643 C -0.747,4.773 -0.91,4.637 -1.125,4.542 -1.339,4.446 -1.606,4.399 -1.928,4.399 H -3.053 V 6.702 Z M 2.249,3.105 C 1.974,3.27 1.68,3.406 1.371,3.521 1.841,3.749 2.229,4.045 2.534,4.408 2.938,4.89 3.141,5.47 3.141,6.148 3.141,6.862 2.938,7.454 2.534,7.924 2.13,8.394 1.579,8.748 0.883,8.986 0.187,9.224 -0.607,9.343 -1.499,9.343 H -6.515 V -3.15 h 5.336 c 1.047,0 1.947,0.115 2.696,0.347 0.75,0.233 1.327,0.604 1.731,1.116 0.404,0.511 0.606,1.184 0.606,2.017 0,0.643 -0.145,1.192 -0.436,1.65 C 3.126,2.438 2.736,2.813 2.249,3.105"
             style="fill:#ffffff;fill-opacity:1;fill-rule:nonzero;stroke:none"
             id="path44" /></g><g
           id="g46"
           transform="translate(123.8789,10.3281)"><path
             d="m 0,0 c -0.196,-0.422 -0.455,-0.749 -0.776,-0.981 -0.322,-0.232 -0.682,-0.393 -1.08,-0.482 -0.399,-0.09 -0.806,-0.134 -1.223,-0.134 h -0.945 v 6.426 h 0.945 c 0.417,0 0.824,-0.045 1.223,-0.135 0.398,-0.089 0.758,-0.249 1.08,-0.482 C -0.455,3.98 -0.196,3.653 0,3.23 0.196,2.809 0.295,2.27 0.295,1.616 0.295,0.961 0.196,0.423 0,0 M 0.714,7.104 C -0.304,7.609 -1.521,7.862 -2.937,7.862 H -4.024 -5.256 -7.612 V -4.631 h 2.356 1.232 1.087 c 1.416,0 2.633,0.252 3.651,0.758 1.017,0.506 1.803,1.226 2.356,2.16 0.553,0.934 0.829,2.044 0.829,3.329 0,1.296 -0.276,2.409 -0.829,3.337 C 2.517,5.881 1.731,6.598 0.714,7.104"
             style="fill:#ffffff;fill-opacity:1;fill-rule:nonzero;stroke:none"
             id="path48" /></g><g
           id="g50"
           transform="translate(139.7822,10.8018)"><path
             d="M 0,0 C -0.146,0.381 -0.353,0.72 -0.622,1.017 -0.891,1.312 -1.207,1.57 -1.57,1.788 -1.935,2.007 -2.335,2.194 -2.771,2.352 -3.274,2.53 -3.72,2.695 -4.106,2.847 -4.492,2.998 -4.795,3.16 -5.013,3.333 -5.231,3.507 -5.341,3.722 -5.341,3.98 c 0,0.224 0.096,0.403 0.286,0.537 0.191,0.135 0.448,0.202 0.773,0.202 0.257,0 0.509,-0.051 0.756,-0.151 0.246,-0.101 0.478,-0.244 0.696,-0.429 0.219,-0.184 0.411,-0.417 0.579,-0.697 l 2.452,1.361 c -0.213,0.403 -0.514,0.803 -0.907,1.2 -0.392,0.398 -0.89,0.728 -1.494,0.991 -0.605,0.263 -1.321,0.395 -2.15,0.395 -0.795,0 -1.516,-0.135 -2.166,-0.403 C -7.165,6.717 -7.686,6.328 -8.077,5.819 -8.47,5.309 -8.665,4.686 -8.665,3.946 c 0,-0.582 0.108,-1.086 0.327,-1.511 0.219,-0.425 0.492,-0.784 0.823,-1.075 0.33,-0.291 0.674,-0.529 1.033,-0.714 0.358,-0.184 0.682,-0.333 0.974,-0.445 0.593,-0.223 1.055,-0.414 1.385,-0.57 0.33,-0.157 0.562,-0.311 0.697,-0.462 0.134,-0.151 0.201,-0.339 0.201,-0.563 0,-0.313 -0.117,-0.551 -0.352,-0.713 -0.236,-0.163 -0.532,-0.244 -0.89,-0.244 -0.37,0 -0.728,0.079 -1.075,0.236 -0.347,0.156 -0.666,0.383 -0.957,0.679 -0.291,0.297 -0.555,0.653 -0.789,1.067 l -2.217,-1.612 c 0.258,-0.582 0.638,-1.112 1.142,-1.587 0.504,-0.476 1.1,-0.851 1.789,-1.125 0.688,-0.275 1.435,-0.411 2.241,-0.411 0.571,0 1.131,0.081 1.68,0.243 0.548,0.162 1.038,0.403 1.468,0.722 0.432,0.319 0.773,0.719 1.025,1.201 0.252,0.481 0.378,1.035 0.378,1.662 C 0.218,-0.806 0.145,-0.381 0,0"
             style="fill:#ffffff;fill-opacity:1;fill-rule:nonzero;stroke:none"
             id="path52" /></g></g></g></g></svg>
